<?xml version="1.0" encoding="UTF-8" standalone="no"?>
<!DOCTYPE svg PUBLIC "-//W3C//DTD SVG 1.1//EN" "http://www.w3.org/Graphics/SVG/1.1/DTD/svg11.dtd">
<svg width="100%" height="100%" viewBox="0 0 2481 3508" version="1.1" xmlns="http://www.w3.org/2000/svg" xmlns:xlink="http://www.w3.org/1999/xlink" xml:space="preserve" xmlns:serif="http://www.serif.com/" style="fill-rule:evenodd;clip-rule:evenodd;stroke-linejoin:round;stroke-miterlimit:2;">
    <g transform="matrix(1,0,0,1,-217.359,-80.7618)">
        <g id="drop-shadow" serif:id="drop shadow">
            <g>
                <path d="M725.87,1535.75C725.87,1534.44 724.812,1533.39 723.508,1533.39C706.012,1533.39 596.524,1533.39 570.265,1533.39C569.312,1533.39 568.452,1532.81 568.085,1531.93C567.718,1531.06 567.915,1530.04 568.585,1529.36C582.272,1515.52 626.937,1470.32 633.041,1464.15C633.485,1463.7 634.09,1463.45 634.721,1463.45L1271.82,1463.45C1272.91,1463.45 1273.85,1464.19 1274.11,1465.24C1274.37,1466.3 1273.88,1467.39 1272.92,1467.9C1241.62,1484.46 1220.56,1506.71 1205.38,1532.23C1204.95,1532.95 1204.18,1533.39 1203.35,1533.39C1178.6,1533.39 820.949,1533.39 788.433,1533.39C787.129,1533.39 786.071,1534.44 786.071,1535.75C786.071,1565.94 786.071,1875.94 786.071,1906.13C786.071,1907.44 785.014,1908.49 783.709,1908.49C774.081,1908.49 737.86,1908.49 728.232,1908.49C726.928,1908.49 725.87,1907.44 725.87,1906.13C725.87,1875.94 725.87,1565.94 725.87,1535.75Z" style="fill:none;stroke:rgb(93,93,93);stroke-width:4.99px;"/>
                <path d="M992.272,1721.57C992.013,1721.18 991.875,1720.72 991.875,1720.26L991.875,1550.16C991.875,1549.54 992.124,1548.94 992.567,1548.49C993.01,1548.05 993.611,1547.8 994.237,1547.8L1033.54,1547.8C1034.33,1547.8 1035.07,1548.2 1035.5,1548.86C1050.62,1571.53 1305.37,1953.76 1341.82,2008.45C1342.4,2009.32 1343.47,2009.7 1344.47,2009.4C1345.47,2009.1 1346.15,2008.18 1346.15,2007.14C1346.15,1986.53 1346.15,1931.4 1346.15,1919.31C1346.15,1918.68 1346.4,1918.08 1346.84,1917.64C1347.28,1917.2 1347.88,1916.95 1348.51,1916.95C1377.08,1916.95 1389.88,1917.05 1405.38,1916.96C1406.01,1916.95 1406.62,1917.2 1407.06,1917.64C1407.51,1918.09 1407.76,1918.69 1407.76,1919.32C1407.76,1941.19 1407.76,2107.03 1407.76,2128.83C1407.76,2129.45 1407.51,2130.06 1407.07,2130.5C1406.62,2130.94 1406.02,2131.19 1405.4,2131.19C1395.21,2131.19 1355.23,2131.19 1347.59,2131.19C1346.8,2131.19 1346.06,2130.8 1345.62,2130.14C1334.63,2113.65 1198.13,1908.83 1198.13,1908.83L1198.13,1908.49L1198.06,1908.49C1197.96,1908.49 1197.87,1908.44 1197.81,1908.36C1194.27,1903.05 1086.17,1740.85 1063.04,1706.15C1062.46,1705.28 1061.39,1704.9 1060.39,1705.2C1059.39,1705.5 1058.71,1706.42 1058.71,1707.46C1058.71,1729.41 1058.71,1791.5 1058.71,1813.45C1058.71,1814.49 1058.03,1815.41 1057.03,1815.71C1056.04,1816.01 1054.96,1815.63 1054.38,1814.76C1040.37,1793.74 996.881,1728.48 992.272,1721.57Z" style="fill:none;stroke:rgb(93,93,93);stroke-width:4.99px;"/>
                <g transform="matrix(1,0,0,1,-71.0267,-71.1534)">
                    <path d="M882.58,1979.65C881.275,1979.65 880.218,1978.59 880.218,1977.29C880.218,1947.76 880.218,1650.85 880.218,1621.32C880.218,1620.01 881.275,1618.96 882.58,1618.96C890.39,1618.96 915.219,1618.96 921.114,1618.96C921.904,1618.96 922.642,1619.35 923.08,1620.01C936.42,1640.02 1135.89,1939.31 1160.33,1975.98C1160.81,1976.7 1160.86,1977.63 1160.45,1978.4C1160.04,1979.17 1159.24,1979.65 1158.37,1979.65C1145.29,1979.65 1107.21,1979.65 1099.9,1979.65C1099.13,1979.65 1098.41,1979.28 1097.97,1978.65C1089.6,1966.83 1009.46,1853.68 1001.09,1841.86C1000.64,1841.24 999.926,1840.86 999.16,1840.86C991.555,1840.86 950.686,1840.86 940.377,1840.86C939.751,1840.86 939.15,1841.11 938.707,1841.56C938.264,1842 938.015,1842.6 938.015,1843.23L938.015,1977.29C938.015,1977.91 937.766,1978.51 937.323,1978.96C936.88,1979.4 936.28,1979.65 935.653,1979.65C926.302,1979.65 891.931,1979.65 882.58,1979.65ZM942.343,1745.09C941.766,1744.22 940.689,1743.84 939.693,1744.14C938.697,1744.44 938.015,1745.36 938.015,1746.4C938.015,1754.95 938.015,1768.15 938.015,1773.49C938.015,1774.79 939.073,1775.85 940.377,1775.85L958.432,1775.85C959.303,1775.85 960.104,1775.37 960.515,1774.6C960.926,1773.84 960.881,1772.9 960.398,1772.18C956.2,1765.88 947.575,1752.94 942.343,1745.09Z" style="fill:none;stroke:rgb(93,93,93);stroke-width:4.99px;"/>
                </g>
                <path d="M1844.6,2127.46C1845.11,2128.18 1845.18,2129.13 1844.77,2129.91C1844.37,2130.7 1843.56,2131.19 1842.67,2131.19C1799.55,2131.19 1465.64,2131.19 1434.27,2131.19C1432.97,2131.19 1431.91,2130.13 1431.91,2128.83C1431.91,2107.02 1431.91,1941.11 1431.91,1919.3C1431.91,1918.68 1432.16,1918.08 1432.6,1917.63C1433.05,1917.19 1433.65,1916.94 1434.27,1916.94C1457.37,1916.94 1642.44,1916.94 1659.61,1916.94C1660.4,1916.94 1661.15,1917.34 1661.58,1918.01C1665.81,1924.44 1687.97,1958.21 1695.38,1969.5C1695.86,1970.23 1695.89,1971.16 1695.48,1971.93C1695.06,1972.69 1694.26,1973.16 1693.39,1973.16C1665.21,1973 1510.75,1972.1 1489.7,1971.98C1489.07,1971.97 1488.47,1972.22 1488.02,1972.66C1487.58,1973.11 1487.33,1973.71 1487.33,1974.34C1487.33,1979.9 1487.33,1993.73 1487.33,1999.28C1487.33,2000.58 1488.38,2001.64 1489.69,2001.64C1505.37,2001.64 1594.18,2001.64 1605.82,2001.64C1606.61,2001.64 1607.34,2002.03 1607.78,2002.69C1611.49,2008.2 1628.85,2034.03 1635.36,2043.71C1635.84,2044.43 1635.89,2045.37 1635.48,2046.14C1635.07,2046.91 1634.27,2047.39 1633.4,2047.39C1610.57,2047.39 1506.71,2047.39 1489.69,2047.39C1488.38,2047.39 1487.33,2048.45 1487.33,2049.75C1487.33,2054.19 1487.33,2063.74 1487.33,2068.18C1487.33,2069.48 1488.38,2070.54 1489.69,2070.54C1517.54,2070.54 1782.69,2070.54 1802.9,2070.54C1803.67,2070.54 1804.39,2070.91 1804.83,2071.53C1809.5,2078.11 1836.05,2115.44 1844.6,2127.46Z" style="fill:none;stroke:rgb(93,93,93);stroke-width:4.99px;"/>
                <g transform="matrix(1,0,0,1,0,-9.77405)">
                    <path d="M1630.87,1579.67C1630.87,1579.67 1574.92,1578.99 1561.32,1578.82C1559.45,1578.8 1557.66,1578.01 1556.37,1576.64C1450.47,1464.52 1304.61,1521.84 1272.28,1606.69C1259,1641.51 1257.96,1706.02 1276.31,1740.99C1294.89,1776.4 1355.38,1847.76 1455.3,1834.28C1569.55,1818.86 1568.99,1723.07 1569.14,1720.94L1461.08,1720.94C1459.5,1720.94 1458.02,1720.15 1457.14,1718.84C1451.69,1710.66 1431.86,1680.89 1424.27,1669.52C1423.69,1668.64 1423.63,1667.51 1424.13,1666.57C1424.63,1665.64 1425.6,1665.06 1426.66,1665.06C1457.83,1665.06 1614.99,1665.06 1635.54,1665.06C1636.79,1665.06 1637.82,1666.03 1637.9,1667.28C1646.58,1814.44 1544.7,1911.99 1401.9,1906.94C1191.89,1899.51 1108.99,1581.24 1318.92,1478.61C1383.17,1447.2 1467.59,1460.04 1495.62,1467.77C1572.64,1489.01 1618.05,1550.98 1630.87,1579.67Z" style="fill:none;stroke:rgb(93,93,93);stroke-width:4.99px;"/>
                </g>
                <g transform="matrix(1.06475,0,0,1.06475,-109.894,-154.233)">
                    <path d="M1660.98,1882.43C1660.75,1882.07 1660.62,1881.64 1660.62,1881.21C1660.62,1870.05 1660.62,1720.92 1660.62,1700.89C1660.62,1699.66 1661.62,1698.67 1662.84,1698.67C1671.17,1698.67 1700.42,1698.67 1706.75,1698.67C1707.51,1698.67 1708.21,1699.06 1708.62,1699.69C1717.02,1712.83 1803.89,1848.64 1823.88,1879.9C1824.41,1880.73 1825.43,1881.11 1826.38,1880.83C1827.32,1880.55 1827.97,1879.69 1827.97,1878.7L1827.97,1775.6C1827.97,1775.01 1828.2,1774.45 1828.62,1774.03C1829.04,1773.62 1829.6,1773.38 1830.19,1773.38C1837.68,1773.38 1862.02,1773.38 1869.52,1773.38C1870.1,1773.38 1870.67,1773.62 1871.09,1774.03C1871.5,1774.45 1871.73,1775.01 1871.73,1775.6C1871.7,1799.61 1871.45,2010.94 1871.4,2053.11C1871.39,2054.08 1870.76,2054.94 1869.82,2055.23C1868.88,2055.51 1867.88,2055.15 1867.33,2054.34C1844.76,2020.54 1734.83,1855.91 1712.23,1822.08C1711.69,1821.27 1710.68,1820.9 1709.74,1821.19C1708.81,1821.47 1708.17,1822.33 1708.17,1823.31C1708.17,1847.25 1708.17,1923.06 1708.17,1947.18C1708.17,1948.16 1707.53,1949.03 1706.58,1949.31C1705.64,1949.59 1704.63,1949.22 1704.09,1948.39C1693.3,1931.87 1664.54,1887.86 1660.98,1882.43Z" style="fill:none;stroke:rgb(93,93,93);stroke-width:4.69px;"/>
                </g>
                <g transform="matrix(1,0,0,1,15.3661,-9.09016)">
                    <path d="M1804.03,1720.94C1803.26,1720.94 1802.54,1720.57 1802.1,1719.95C1797.68,1713.73 1773.79,1680.12 1765.74,1668.79C1765.23,1668.07 1765.16,1667.12 1765.57,1666.34C1765.97,1665.55 1766.78,1665.06 1767.67,1665.06C1813.09,1665.06 2181.72,1665.06 2204.66,1665.06C2205.37,1665.06 2206.04,1665.37 2206.49,1665.92C2211.28,1671.76 2238.96,1705.55 2248.41,1717.08C2248.99,1717.79 2249.11,1718.76 2248.72,1719.59C2248.33,1720.41 2247.5,1720.94 2246.59,1720.94C2209.92,1720.94 1982.89,1720.94 1957.21,1720.94C1955.91,1720.94 1954.85,1722 1954.85,1723.3C1954.85,1755.47 1954.85,2105.76 1954.85,2137.92C1954.85,2139.22 1953.79,2140.28 1952.49,2140.28C1942.86,2140.28 1906.64,2140.28 1897.01,2140.28C1895.71,2140.28 1894.65,2139.22 1894.65,2137.92C1894.65,2105.76 1894.65,1755.47 1894.65,1723.3C1894.65,1722 1893.59,1720.94 1892.29,1720.94C1878.99,1720.94 1813.77,1720.94 1804.03,1720.94Z" style="fill:none;stroke:rgb(93,93,93);stroke-width:4.99px;"/>
                </g>
                <g transform="matrix(1,0,0,1,43.7519,40.0956)">
                    <path d="M1943.16,1976.64C1943.16,1976.01 1943.4,1975.4 1943.84,1974.95C1944.29,1974.5 1944.89,1974.25 1945.53,1974.25C1955.27,1974.25 1992.05,1974.25 2001.67,1974.25C2002.95,1974.25 2004,1975.26 2004.03,1976.54C2005.19,2010.4 2032.02,2036.97 2066.19,2036.97C2100.79,2036.97 2126.11,2010.28 2126.11,1975.68C2126.11,1938.41 2091.07,1918.34 2051.04,1911.57C2011.81,1904.93 1989.83,1887.9 1976.98,1870.82C1962.64,1851.77 1959.23,1831.35 1959.07,1818.49C1958.45,1768.41 2004.27,1723.04 2054.27,1720C2106.86,1716.8 2159.49,1762 2161.06,1814.47C2161.08,1815.11 2160.84,1815.72 2160.39,1816.18C2159.95,1816.63 2159.34,1816.89 2158.7,1816.89C2148.92,1816.89 2112.04,1816.89 2102.51,1816.89C2101.26,1816.89 2100.23,1815.92 2100.15,1814.67C2098.69,1795.07 2077.82,1779.52 2057.96,1780.73C2038.59,1781.91 2019.67,1798.33 2019.92,1817.73C2020.04,1827.55 2027.79,1845.92 2061.19,1851.57C2132.83,1863.7 2186.95,1908.97 2186.95,1975.68C2186.95,2045.02 2135.53,2097.81 2066.19,2097.81C1998.01,2097.81 1944.4,2044.49 1943.16,1976.64Z" style="fill:none;stroke:rgb(93,93,93);stroke-width:4.99px;"/>
                </g>
            </g>
        </g>
    </g>
    <g transform="matrix(1,0,0,1,-216.876,-81.4667)">
        <g id="Layer2">
            <g>
                <g transform="matrix(1,0,0,1,-11.1335,-8.65936)">
                    <path d="M725.87,1535.75C725.87,1534.44 724.812,1533.39 723.508,1533.39C706.012,1533.39 596.524,1533.39 570.265,1533.39C569.312,1533.39 568.452,1532.81 568.085,1531.93C567.718,1531.06 567.915,1530.04 568.585,1529.36C582.272,1515.52 626.937,1470.32 633.041,1464.15C633.485,1463.7 634.09,1463.45 634.721,1463.45C660.705,1463.45 1191.89,1463.45 1271.82,1463.45C1272.91,1463.45 1273.85,1464.19 1274.11,1465.24C1274.37,1466.3 1273.88,1467.39 1272.92,1467.9C1241.62,1484.46 1220.56,1506.71 1205.38,1532.23C1204.95,1532.95 1204.18,1533.39 1203.35,1533.39C1178.6,1533.39 820.949,1533.39 788.433,1533.39C787.129,1533.39 786.071,1534.44 786.071,1535.75C786.071,1565.94 786.071,1875.94 786.071,1906.13C786.071,1907.44 785.014,1908.49 783.709,1908.49C774.081,1908.49 737.86,1908.49 728.232,1908.49C726.928,1908.49 725.87,1907.44 725.87,1906.13C725.87,1875.94 725.87,1565.94 725.87,1535.75Z"/>
                </g>
                <g transform="matrix(1,0,0,1,-16.0817,-6.18526)">
                    <path d="M992.272,1721.57C992.013,1721.18 991.875,1720.72 991.875,1720.26L991.875,1550.16C991.875,1549.54 992.124,1548.94 992.567,1548.49C993.01,1548.05 993.611,1547.8 994.237,1547.8L1033.54,1547.8C1034.33,1547.8 1035.07,1548.2 1035.5,1548.86C1050.62,1571.53 1305.37,1953.76 1341.82,2008.45C1342.4,2009.32 1343.47,2009.7 1344.47,2009.4C1345.47,2009.1 1346.15,2008.18 1346.15,2007.14C1346.15,1986.53 1346.15,1931.4 1346.15,1919.31C1346.15,1918.68 1346.4,1918.08 1346.84,1917.64C1347.28,1917.2 1347.88,1916.95 1348.51,1916.95C1377.08,1916.95 1389.88,1917.05 1405.38,1916.96C1406.01,1916.95 1406.62,1917.2 1407.06,1917.64C1407.51,1918.09 1407.76,1918.69 1407.76,1919.32C1407.76,1941.19 1407.76,2107.03 1407.76,2128.83C1407.76,2129.45 1407.51,2130.06 1407.07,2130.5C1406.62,2130.94 1406.02,2131.19 1405.4,2131.19C1395.21,2131.19 1355.23,2131.19 1347.59,2131.19C1346.8,2131.19 1346.06,2130.8 1345.62,2130.14C1334.63,2113.65 1198.13,1908.83 1198.13,1908.83L1198.13,1908.49L1198.06,1908.49C1197.96,1908.49 1197.87,1908.44 1197.81,1908.36C1194.27,1903.05 1086.17,1740.85 1063.04,1706.15C1062.46,1705.28 1061.39,1704.9 1060.39,1705.2C1059.39,1705.5 1058.71,1706.42 1058.71,1707.46C1058.71,1729.41 1058.71,1791.5 1058.71,1813.45C1058.71,1814.49 1058.03,1815.41 1057.03,1815.71C1056.04,1816.01 1054.96,1815.63 1054.38,1814.76C1040.37,1793.74 996.881,1728.48 992.272,1721.57Z"/>
                </g>
                <g transform="matrix(1,0,0,1,-85.8714,-77.3387)">
                    <path d="M882.58,1979.65C881.275,1979.65 880.218,1978.59 880.218,1977.29C880.218,1947.76 880.218,1650.85 880.218,1621.32C880.218,1620.01 881.275,1618.96 882.58,1618.96C890.39,1618.96 915.219,1618.96 921.114,1618.96C921.904,1618.96 922.642,1619.35 923.08,1620.01C936.42,1640.02 1135.89,1939.31 1160.33,1975.98C1160.81,1976.7 1160.86,1977.63 1160.45,1978.4C1160.04,1979.17 1159.24,1979.65 1158.37,1979.65C1145.29,1979.65 1107.21,1979.65 1099.9,1979.65C1099.13,1979.65 1098.41,1979.28 1097.97,1978.65C1089.6,1966.83 1009.46,1853.68 1001.09,1841.86C1000.64,1841.24 999.926,1840.86 999.16,1840.86C991.555,1840.86 950.686,1840.86 940.377,1840.86C939.751,1840.86 939.15,1841.11 938.707,1841.56C938.264,1842 938.015,1842.6 938.015,1843.23C938.015,1859.97 938.015,1960.54 938.015,1977.29C938.015,1977.91 937.766,1978.51 937.323,1978.96C936.88,1979.4 936.28,1979.65 935.653,1979.65C926.302,1979.65 891.931,1979.65 882.58,1979.65ZM942.343,1745.09C941.766,1744.22 940.689,1743.84 939.693,1744.14C938.697,1744.44 938.015,1745.36 938.015,1746.4C938.015,1754.95 938.015,1768.15 938.015,1773.49C938.015,1774.79 939.073,1775.85 940.377,1775.85L958.432,1775.85C959.303,1775.85 960.104,1775.37 960.515,1774.6C960.926,1773.84 960.881,1772.9 960.398,1772.18C956.2,1765.88 947.575,1752.94 942.343,1745.09Z"/>
                </g>
                <g transform="matrix(1,0,0,1,-17.3187,-6.18526)">
                    <path d="M1844.6,2127.46C1845.11,2128.18 1845.18,2129.13 1844.77,2129.91C1844.37,2130.7 1843.56,2131.19 1842.67,2131.19C1799.55,2131.19 1465.64,2131.19 1434.27,2131.19C1432.97,2131.19 1431.91,2130.13 1431.91,2128.83C1431.91,2107.02 1431.91,1941.11 1431.91,1919.3C1431.91,1918.68 1432.16,1918.08 1432.6,1917.63C1433.05,1917.19 1433.65,1916.94 1434.27,1916.94C1457.37,1916.94 1642.44,1916.94 1659.61,1916.94C1660.4,1916.94 1661.15,1917.34 1661.58,1918.01C1665.81,1924.44 1687.97,1958.21 1695.38,1969.5C1695.86,1970.23 1695.89,1971.16 1695.48,1971.93C1695.06,1972.69 1694.26,1973.16 1693.39,1973.16C1665.21,1973 1510.75,1972.1 1489.7,1971.98C1489.07,1971.97 1488.47,1972.22 1488.02,1972.66C1487.58,1973.11 1487.33,1973.71 1487.33,1974.34C1487.33,1979.9 1487.33,1993.73 1487.33,1999.28C1487.33,2000.58 1488.38,2001.64 1489.69,2001.64C1505.37,2001.64 1594.18,2001.64 1605.82,2001.64C1606.61,2001.64 1607.34,2002.03 1607.78,2002.69C1611.49,2008.2 1628.85,2034.03 1635.36,2043.71C1635.84,2044.43 1635.89,2045.37 1635.48,2046.14C1635.07,2046.91 1634.27,2047.39 1633.4,2047.39C1610.57,2047.39 1506.71,2047.39 1489.69,2047.39C1488.38,2047.39 1487.33,2048.45 1487.33,2049.75C1487.33,2054.19 1487.33,2063.74 1487.33,2068.18C1487.33,2069.48 1488.38,2070.54 1489.69,2070.54C1517.54,2070.54 1782.69,2070.54 1802.9,2070.54C1803.67,2070.54 1804.39,2070.91 1804.83,2071.53C1809.5,2078.11 1836.05,2115.44 1844.6,2127.46Z"/>
                </g>
                <g transform="matrix(1,0,0,1,-12.3705,-17.1964)">
                    <path d="M1630.87,1579.67L1553.12,1579.67C1551.39,1579.67 1549.73,1579.02 1548.45,1577.85C1441.53,1480.18 1311.56,1537.38 1279.34,1608.46C1266.42,1636.98 1262.52,1699.76 1278.09,1742.47C1291.78,1780.04 1355.38,1847.76 1455.3,1834.28C1569.55,1818.86 1568.99,1723.07 1569.14,1720.94L1461.08,1720.94C1459.5,1720.94 1458.02,1720.15 1457.14,1718.84C1451.69,1710.66 1431.86,1680.89 1424.27,1669.52C1423.69,1668.64 1423.63,1667.51 1424.13,1666.57C1424.63,1665.64 1425.6,1665.06 1426.66,1665.06C1458.23,1665.06 1619.17,1665.06 1639.99,1665.06C1641.23,1665.06 1642.27,1666.03 1642.34,1667.28C1651.73,1826.91 1536.64,1918.63 1401.9,1906.94C1192.55,1888.77 1108.99,1581.24 1318.92,1478.61C1383.17,1447.2 1467.59,1460.04 1495.62,1467.77C1572.64,1489.01 1618.05,1550.98 1630.87,1579.67Z"/>
                </g>
                <g transform="matrix(1.06475,0,0,1.06475,-118.553,-161.656)">
                    <path d="M1660.98,1882.43C1660.75,1882.07 1660.62,1881.64 1660.62,1881.21C1660.62,1870.05 1660.62,1720.92 1660.62,1700.89C1660.62,1699.66 1661.62,1698.67 1662.84,1698.67C1671.17,1698.67 1700.42,1698.67 1706.75,1698.67C1707.51,1698.67 1708.21,1699.06 1708.62,1699.69C1717.02,1712.83 1803.89,1848.64 1823.88,1879.9C1824.41,1880.73 1825.43,1881.11 1826.38,1880.83C1827.32,1880.55 1827.97,1879.69 1827.97,1878.7L1827.97,1775.6C1827.97,1775.01 1828.2,1774.45 1828.62,1774.03C1829.04,1773.62 1829.6,1773.38 1830.19,1773.38C1837.68,1773.38 1862.02,1773.38 1869.52,1773.38C1870.1,1773.38 1870.67,1773.62 1871.09,1774.03C1871.5,1774.45 1871.73,1775.01 1871.73,1775.6C1871.7,1799.61 1871.45,2010.94 1871.4,2053.11C1871.39,2054.08 1870.76,2054.94 1869.82,2055.23C1868.88,2055.51 1867.88,2055.15 1867.33,2054.34C1844.76,2020.54 1734.83,1855.91 1712.23,1822.08C1711.69,1821.27 1710.68,1820.9 1709.74,1821.19C1708.81,1821.47 1708.17,1822.33 1708.17,1823.31C1708.17,1847.25 1708.17,1923.06 1708.17,1947.18C1708.17,1948.16 1707.53,1949.03 1706.58,1949.31C1705.64,1949.59 1704.63,1949.22 1704.09,1948.39C1693.3,1931.87 1664.54,1887.86 1660.98,1882.43Z"/>
                </g>
                <g transform="matrix(1,0,0,1,-0.715547,-16.5125)">
                    <path d="M1804.03,1720.94C1803.26,1720.94 1802.54,1720.57 1802.1,1719.95C1797.68,1713.73 1773.79,1680.12 1765.74,1668.79C1765.23,1668.07 1765.16,1667.12 1765.57,1666.34C1765.97,1665.55 1766.78,1665.06 1767.67,1665.06C1813.09,1665.06 2181.72,1665.06 2204.66,1665.06C2205.37,1665.06 2206.04,1665.37 2206.49,1665.92C2211.28,1671.76 2238.96,1705.55 2248.41,1717.08C2248.99,1717.79 2249.11,1718.76 2248.72,1719.59C2248.33,1720.41 2247.5,1720.94 2246.59,1720.94C2209.92,1720.94 1982.89,1720.94 1957.21,1720.94C1955.91,1720.94 1954.85,1722 1954.85,1723.3C1954.85,1755.47 1954.85,2105.76 1954.85,2137.92C1954.85,2139.22 1953.79,2140.28 1952.49,2140.28C1942.86,2140.28 1906.64,2140.28 1897.01,2140.28C1895.71,2140.28 1894.65,2139.22 1894.65,2137.92C1894.65,2105.76 1894.65,1755.47 1894.65,1723.3C1894.65,1722 1893.59,1720.94 1892.29,1720.94C1878.99,1720.94 1813.77,1720.94 1804.03,1720.94Z"/>
                </g>
                <g transform="matrix(1,0,0,1,32.6184,33.9104)">
                    <path d="M1943.16,1976.64C1943.16,1976.01 1943.4,1975.4 1943.84,1974.95C1944.29,1974.5 1944.89,1974.25 1945.53,1974.25C1955.27,1974.25 1992.05,1974.25 2001.67,1974.25C2002.95,1974.25 2004,1975.26 2004.03,1976.54C2005.19,2010.4 2032.02,2036.97 2066.19,2036.97C2100.79,2036.97 2126.11,2010.28 2126.11,1975.68C2126.11,1938.41 2091.07,1918.34 2051.04,1911.57C2011.81,1904.93 1989.83,1887.9 1976.98,1870.82C1962.64,1851.77 1959.23,1831.35 1959.07,1818.49C1958.45,1768.41 2004.27,1723.04 2054.27,1720C2106.86,1716.8 2159.49,1762 2161.06,1814.47C2161.08,1815.11 2160.84,1815.72 2160.39,1816.18C2159.95,1816.63 2159.34,1816.89 2158.7,1816.89C2148.92,1816.89 2112.04,1816.89 2102.51,1816.89C2101.26,1816.89 2100.23,1815.92 2100.15,1814.67C2098.69,1795.07 2077.82,1779.52 2057.96,1780.73C2038.59,1781.91 2019.67,1798.33 2019.92,1817.73C2020.04,1827.55 2027.79,1845.92 2061.19,1851.57C2132.83,1863.7 2186.95,1908.97 2186.95,1975.68C2186.95,2045.02 2135.53,2097.81 2066.19,2097.81C1998.01,2097.81 1944.4,2044.49 1943.16,1976.64Z"/>
                </g>
            </g>
        </g>
    </g>
</svg>
